<svg width="70" height="70" viewBox="0 0 70 70" fill="none" xmlns="http://www.w3.org/2000/svg">
<path d="M54.5438 50.1598V14.3181H50.6519V50.1598H37.6186V4H67.5772V50.1598H54.5438Z" fill="white"/>
<path d="M32.2301 4V50.1598H19.6493L19.2873 45.0007H18.4727C17.6883 47.535 16.5418 49.1038 15.0333 49.7072V67.266H2V4H15.0333V28.7996C15.0333 32.5406 15.0635 35.0447 15.1239 36.3118C15.1842 37.5186 15.335 38.303 15.5764 38.6651C15.8178 38.9668 16.3306 39.1176 17.1151 39.1176C17.8995 39.1176 18.4124 38.9064 18.6537 38.4841C18.8951 38.0617 19.0459 37.1264 19.1063 35.6783C19.1666 34.2301 19.1968 31.2735 19.1968 26.8084V4H32.2301Z" fill="white"/>
</svg>
